<svg xmlns="http://www.w3.org/2000/svg" xmlns:xlink="http://www.w3.org/1999/xlink" width="500" zoomAndPan="magnify" viewBox="0 0 375 374.999991" height="500" preserveAspectRatio="xMidYMid meet" version="1.0"><defs><g/><clipPath id="0542c4ddc2"><path d="M 153.464844 156.589844 L 215.285156 156.589844 L 215.285156 218.410156 L 153.464844 218.410156 Z M 153.464844 156.589844 " clip-rule="nonzero"/></clipPath><clipPath id="5095629872"><path d="M 153.464844 156.589844 L 214.964844 156.589844 L 214.964844 218.089844 L 153.464844 218.089844 Z M 153.464844 156.589844 " clip-rule="nonzero"/></clipPath><linearGradient x1="-0.00000724137" gradientTransform="matrix(1.287842, 0, 0, 1.287842, 0.00000932574, -0.00000143399)" y1="32" x2="63.672407" gradientUnits="userSpaceOnUse" y2="32" id="2a0acd3c13"><stop stop-opacity="1" stop-color="rgb(100%, 96.899414%, 67.799377%)" offset="0"/><stop stop-opacity="1" stop-color="rgb(100%, 96.780396%, 67.915344%)" offset="0.0078125"/><stop stop-opacity="1" stop-color="rgb(100%, 96.542358%, 68.145752%)" offset="0.015625"/><stop stop-opacity="1" stop-color="rgb(100%, 96.304321%, 68.377686%)" offset="0.0234375"/><stop stop-opacity="1" stop-color="rgb(100%, 96.066284%, 68.609619%)" offset="0.03125"/><stop stop-opacity="1" stop-color="rgb(100%, 95.828247%, 68.841553%)" offset="0.0390625"/><stop stop-opacity="1" stop-color="rgb(100%, 95.591736%, 69.073486%)" offset="0.046875"/><stop stop-opacity="1" stop-color="rgb(100%, 95.353699%, 69.303894%)" offset="0.0546875"/><stop stop-opacity="1" stop-color="rgb(100%, 95.115662%, 69.535828%)" offset="0.0625"/><stop stop-opacity="1" stop-color="rgb(100%, 94.877625%, 69.767761%)" offset="0.0703125"/><stop stop-opacity="1" stop-color="rgb(100%, 94.639587%, 69.999695%)" offset="0.078125"/><stop stop-opacity="1" stop-color="rgb(100%, 94.40155%, 70.231628%)" offset="0.0859375"/><stop stop-opacity="1" stop-color="rgb(100%, 94.163513%, 70.462036%)" offset="0.09375"/><stop stop-opacity="1" stop-color="rgb(100%, 93.925476%, 70.69397%)" offset="0.101562"/><stop stop-opacity="1" stop-color="rgb(100%, 93.688965%, 70.925903%)" offset="0.109375"/><stop stop-opacity="1" stop-color="rgb(100%, 93.450928%, 71.157837%)" offset="0.117188"/><stop stop-opacity="1" stop-color="rgb(100%, 93.212891%, 71.389771%)" offset="0.125"/><stop stop-opacity="1" stop-color="rgb(100%, 92.974854%, 71.620178%)" offset="0.132812"/><stop stop-opacity="1" stop-color="rgb(100%, 92.736816%, 71.852112%)" offset="0.140625"/><stop stop-opacity="1" stop-color="rgb(100%, 92.498779%, 72.084045%)" offset="0.148438"/><stop stop-opacity="1" stop-color="rgb(100%, 92.260742%, 72.315979%)" offset="0.15625"/><stop stop-opacity="1" stop-color="rgb(100%, 92.022705%, 72.547913%)" offset="0.164062"/><stop stop-opacity="1" stop-color="rgb(100%, 91.786194%, 72.77832%)" offset="0.171875"/><stop stop-opacity="1" stop-color="rgb(100%, 91.548157%, 73.010254%)" offset="0.179688"/><stop stop-opacity="1" stop-color="rgb(100%, 91.31012%, 73.242188%)" offset="0.1875"/><stop stop-opacity="1" stop-color="rgb(100%, 91.072083%, 73.474121%)" offset="0.195312"/><stop stop-opacity="1" stop-color="rgb(100%, 90.834045%, 73.706055%)" offset="0.203125"/><stop stop-opacity="1" stop-color="rgb(100%, 90.596008%, 73.936462%)" offset="0.210938"/><stop stop-opacity="1" stop-color="rgb(100%, 90.357971%, 74.168396%)" offset="0.21875"/><stop stop-opacity="1" stop-color="rgb(100%, 90.12146%, 74.40033%)" offset="0.226562"/><stop stop-opacity="1" stop-color="rgb(100%, 89.883423%, 74.632263%)" offset="0.234375"/><stop stop-opacity="1" stop-color="rgb(100%, 89.645386%, 74.864197%)" offset="0.242188"/><stop stop-opacity="1" stop-color="rgb(100%, 89.407349%, 75.094604%)" offset="0.25"/><stop stop-opacity="1" stop-color="rgb(100%, 89.169312%, 75.326538%)" offset="0.257812"/><stop stop-opacity="1" stop-color="rgb(100%, 88.931274%, 75.558472%)" offset="0.265625"/><stop stop-opacity="1" stop-color="rgb(100%, 88.693237%, 75.790405%)" offset="0.273438"/><stop stop-opacity="1" stop-color="rgb(100%, 88.4552%, 76.022339%)" offset="0.28125"/><stop stop-opacity="1" stop-color="rgb(100%, 88.218689%, 76.252747%)" offset="0.289062"/><stop stop-opacity="1" stop-color="rgb(100%, 87.980652%, 76.48468%)" offset="0.296875"/><stop stop-opacity="1" stop-color="rgb(100%, 87.742615%, 76.716614%)" offset="0.304688"/><stop stop-opacity="1" stop-color="rgb(100%, 87.504578%, 76.948547%)" offset="0.3125"/><stop stop-opacity="1" stop-color="rgb(100%, 87.266541%, 77.180481%)" offset="0.320312"/><stop stop-opacity="1" stop-color="rgb(100%, 87.028503%, 77.410889%)" offset="0.328125"/><stop stop-opacity="1" stop-color="rgb(100%, 86.790466%, 77.642822%)" offset="0.335938"/><stop stop-opacity="1" stop-color="rgb(100%, 86.552429%, 77.874756%)" offset="0.34375"/><stop stop-opacity="1" stop-color="rgb(100%, 86.315918%, 78.106689%)" offset="0.351562"/><stop stop-opacity="1" stop-color="rgb(100%, 86.077881%, 78.337097%)" offset="0.359375"/><stop stop-opacity="1" stop-color="rgb(100%, 85.839844%, 78.569031%)" offset="0.367188"/><stop stop-opacity="1" stop-color="rgb(100%, 85.601807%, 78.800964%)" offset="0.375"/><stop stop-opacity="1" stop-color="rgb(100%, 85.36377%, 79.032898%)" offset="0.382812"/><stop stop-opacity="1" stop-color="rgb(100%, 85.125732%, 79.264832%)" offset="0.390625"/><stop stop-opacity="1" stop-color="rgb(100%, 84.887695%, 79.495239%)" offset="0.398438"/><stop stop-opacity="1" stop-color="rgb(100%, 84.651184%, 79.727173%)" offset="0.40625"/><stop stop-opacity="1" stop-color="rgb(100%, 84.413147%, 79.959106%)" offset="0.414062"/><stop stop-opacity="1" stop-color="rgb(100%, 84.17511%, 80.19104%)" offset="0.421875"/><stop stop-opacity="1" stop-color="rgb(100%, 83.937073%, 80.422974%)" offset="0.429688"/><stop stop-opacity="1" stop-color="rgb(100%, 83.699036%, 80.653381%)" offset="0.4375"/><stop stop-opacity="1" stop-color="rgb(100%, 83.460999%, 80.885315%)" offset="0.445312"/><stop stop-opacity="1" stop-color="rgb(100%, 83.222961%, 81.117249%)" offset="0.453125"/><stop stop-opacity="1" stop-color="rgb(100%, 82.984924%, 81.349182%)" offset="0.460938"/><stop stop-opacity="1" stop-color="rgb(100%, 82.748413%, 81.581116%)" offset="0.46875"/><stop stop-opacity="1" stop-color="rgb(100%, 82.510376%, 81.811523%)" offset="0.476562"/><stop stop-opacity="1" stop-color="rgb(100%, 82.272339%, 82.043457%)" offset="0.484375"/><stop stop-opacity="1" stop-color="rgb(100%, 82.034302%, 82.275391%)" offset="0.492188"/><stop stop-opacity="1" stop-color="rgb(100%, 81.796265%, 82.507324%)" offset="0.5"/><stop stop-opacity="1" stop-color="rgb(100%, 81.558228%, 82.739258%)" offset="0.507812"/><stop stop-opacity="1" stop-color="rgb(100%, 81.32019%, 82.969666%)" offset="0.515625"/><stop stop-opacity="1" stop-color="rgb(100%, 81.082153%, 83.201599%)" offset="0.523438"/><stop stop-opacity="1" stop-color="rgb(100%, 80.845642%, 83.433533%)" offset="0.53125"/><stop stop-opacity="1" stop-color="rgb(100%, 80.607605%, 83.665466%)" offset="0.539062"/><stop stop-opacity="1" stop-color="rgb(100%, 80.369568%, 83.8974%)" offset="0.546875"/><stop stop-opacity="1" stop-color="rgb(100%, 80.131531%, 84.127808%)" offset="0.554687"/><stop stop-opacity="1" stop-color="rgb(100%, 79.893494%, 84.359741%)" offset="0.5625"/><stop stop-opacity="1" stop-color="rgb(100%, 79.655457%, 84.591675%)" offset="0.570312"/><stop stop-opacity="1" stop-color="rgb(100%, 79.417419%, 84.823608%)" offset="0.578125"/><stop stop-opacity="1" stop-color="rgb(100%, 79.180908%, 85.055542%)" offset="0.585938"/><stop stop-opacity="1" stop-color="rgb(100%, 78.942871%, 85.28595%)" offset="0.59375"/><stop stop-opacity="1" stop-color="rgb(100%, 78.704834%, 85.517883%)" offset="0.601562"/><stop stop-opacity="1" stop-color="rgb(100%, 78.466797%, 85.749817%)" offset="0.609375"/><stop stop-opacity="1" stop-color="rgb(100%, 78.22876%, 85.98175%)" offset="0.617188"/><stop stop-opacity="1" stop-color="rgb(100%, 77.990723%, 86.213684%)" offset="0.625"/><stop stop-opacity="1" stop-color="rgb(100%, 77.752686%, 86.444092%)" offset="0.632812"/><stop stop-opacity="1" stop-color="rgb(100%, 77.514648%, 86.676025%)" offset="0.640625"/><stop stop-opacity="1" stop-color="rgb(100%, 77.278137%, 86.907959%)" offset="0.648438"/><stop stop-opacity="1" stop-color="rgb(100%, 77.0401%, 87.139893%)" offset="0.65625"/><stop stop-opacity="1" stop-color="rgb(100%, 76.802063%, 87.3703%)" offset="0.664062"/><stop stop-opacity="1" stop-color="rgb(100%, 76.564026%, 87.602234%)" offset="0.671875"/><stop stop-opacity="1" stop-color="rgb(100%, 76.325989%, 87.834167%)" offset="0.679688"/><stop stop-opacity="1" stop-color="rgb(100%, 76.087952%, 88.066101%)" offset="0.6875"/><stop stop-opacity="1" stop-color="rgb(100%, 75.849915%, 88.298035%)" offset="0.695312"/><stop stop-opacity="1" stop-color="rgb(100%, 75.611877%, 88.528442%)" offset="0.703125"/><stop stop-opacity="1" stop-color="rgb(100%, 75.375366%, 88.760376%)" offset="0.710938"/><stop stop-opacity="1" stop-color="rgb(100%, 75.137329%, 88.99231%)" offset="0.71875"/><stop stop-opacity="1" stop-color="rgb(100%, 74.899292%, 89.224243%)" offset="0.726562"/><stop stop-opacity="1" stop-color="rgb(100%, 74.661255%, 89.456177%)" offset="0.734375"/><stop stop-opacity="1" stop-color="rgb(100%, 74.423218%, 89.686584%)" offset="0.742188"/><stop stop-opacity="1" stop-color="rgb(100%, 74.185181%, 89.918518%)" offset="0.75"/><stop stop-opacity="1" stop-color="rgb(100%, 73.947144%, 90.150452%)" offset="0.757812"/><stop stop-opacity="1" stop-color="rgb(100%, 73.709106%, 90.382385%)" offset="0.765625"/><stop stop-opacity="1" stop-color="rgb(100%, 73.472595%, 90.614319%)" offset="0.773438"/><stop stop-opacity="1" stop-color="rgb(100%, 73.234558%, 90.844727%)" offset="0.78125"/><stop stop-opacity="1" stop-color="rgb(100%, 72.996521%, 91.07666%)" offset="0.789062"/><stop stop-opacity="1" stop-color="rgb(100%, 72.758484%, 91.308594%)" offset="0.796875"/><stop stop-opacity="1" stop-color="rgb(100%, 72.520447%, 91.540527%)" offset="0.804688"/><stop stop-opacity="1" stop-color="rgb(100%, 72.28241%, 91.772461%)" offset="0.8125"/><stop stop-opacity="1" stop-color="rgb(100%, 72.044373%, 92.002869%)" offset="0.820312"/><stop stop-opacity="1" stop-color="rgb(100%, 71.807861%, 92.234802%)" offset="0.828125"/><stop stop-opacity="1" stop-color="rgb(100%, 71.569824%, 92.466736%)" offset="0.835938"/><stop stop-opacity="1" stop-color="rgb(100%, 71.331787%, 92.698669%)" offset="0.84375"/><stop stop-opacity="1" stop-color="rgb(100%, 71.09375%, 92.930603%)" offset="0.851562"/><stop stop-opacity="1" stop-color="rgb(100%, 70.855713%, 93.161011%)" offset="0.859375"/><stop stop-opacity="1" stop-color="rgb(100%, 70.617676%, 93.392944%)" offset="0.867188"/><stop stop-opacity="1" stop-color="rgb(100%, 70.379639%, 93.624878%)" offset="0.875"/><stop stop-opacity="1" stop-color="rgb(100%, 70.141602%, 93.856812%)" offset="0.882812"/><stop stop-opacity="1" stop-color="rgb(100%, 69.90509%, 94.088745%)" offset="0.890625"/><stop stop-opacity="1" stop-color="rgb(100%, 69.667053%, 94.319153%)" offset="0.898438"/><stop stop-opacity="1" stop-color="rgb(100%, 69.429016%, 94.551086%)" offset="0.90625"/><stop stop-opacity="1" stop-color="rgb(100%, 69.190979%, 94.78302%)" offset="0.914062"/><stop stop-opacity="1" stop-color="rgb(100%, 68.952942%, 95.014954%)" offset="0.921875"/><stop stop-opacity="1" stop-color="rgb(100%, 68.714905%, 95.246887%)" offset="0.929688"/><stop stop-opacity="1" stop-color="rgb(100%, 68.476868%, 95.477295%)" offset="0.9375"/><stop stop-opacity="1" stop-color="rgb(100%, 68.238831%, 95.709229%)" offset="0.945313"/><stop stop-opacity="1" stop-color="rgb(100%, 68.002319%, 95.941162%)" offset="0.953125"/><stop stop-opacity="1" stop-color="rgb(100%, 67.764282%, 96.173096%)" offset="0.960938"/><stop stop-opacity="1" stop-color="rgb(100%, 67.526245%, 96.403503%)" offset="0.96875"/><stop stop-opacity="1" stop-color="rgb(100%, 67.288208%, 96.635437%)" offset="0.976562"/><stop stop-opacity="1" stop-color="rgb(100%, 67.050171%, 96.867371%)" offset="0.984375"/><stop stop-opacity="1" stop-color="rgb(100%, 66.812134%, 97.099304%)" offset="0.992188"/><stop stop-opacity="1" stop-color="rgb(100%, 66.574097%, 97.331238%)" offset="1"/></linearGradient><clipPath id="749baee643"><path d="M 157.394531 160.519531 L 211.355469 160.519531 L 211.355469 214.480469 L 157.394531 214.480469 Z M 157.394531 160.519531 " clip-rule="nonzero"/></clipPath><clipPath id="47bb655bbc"><path d="M 157.394531 160.519531 L 211.347656 160.519531 L 211.347656 214.472656 L 157.394531 214.472656 Z M 157.394531 160.519531 " clip-rule="nonzero"/></clipPath><linearGradient x1="-0.0000125242" gradientTransform="matrix(1.124023, 0, 0, 1.124023, 0.0000140775, 0.00000198442)" y1="32" x2="63.999985" gradientUnits="userSpaceOnUse" y2="32" id="5c1c8fc501"><stop stop-opacity="1" stop-color="rgb(100%, 96.899414%, 67.799377%)" offset="0"/><stop stop-opacity="1" stop-color="rgb(100%, 96.77887%, 67.915344%)" offset="0.0078125"/><stop stop-opacity="1" stop-color="rgb(100%, 96.540833%, 68.147278%)" offset="0.015625"/><stop stop-opacity="1" stop-color="rgb(100%, 96.30127%, 68.380737%)" offset="0.0234375"/><stop stop-opacity="1" stop-color="rgb(100%, 96.061707%, 68.614197%)" offset="0.03125"/><stop stop-opacity="1" stop-color="rgb(100%, 95.823669%, 68.84613%)" offset="0.0390625"/><stop stop-opacity="1" stop-color="rgb(100%, 95.584106%, 69.07959%)" offset="0.046875"/><stop stop-opacity="1" stop-color="rgb(100%, 95.344543%, 69.311523%)" offset="0.0546875"/><stop stop-opacity="1" stop-color="rgb(100%, 95.106506%, 69.544983%)" offset="0.0625"/><stop stop-opacity="1" stop-color="rgb(100%, 94.866943%, 69.778442%)" offset="0.0703125"/><stop stop-opacity="1" stop-color="rgb(100%, 94.62738%, 70.010376%)" offset="0.078125"/><stop stop-opacity="1" stop-color="rgb(100%, 94.387817%, 70.243835%)" offset="0.0859375"/><stop stop-opacity="1" stop-color="rgb(100%, 94.14978%, 70.475769%)" offset="0.09375"/><stop stop-opacity="1" stop-color="rgb(100%, 93.910217%, 70.709229%)" offset="0.101562"/><stop stop-opacity="1" stop-color="rgb(100%, 93.670654%, 70.941162%)" offset="0.109375"/><stop stop-opacity="1" stop-color="rgb(100%, 93.432617%, 71.174622%)" offset="0.117188"/><stop stop-opacity="1" stop-color="rgb(100%, 93.193054%, 71.408081%)" offset="0.125"/><stop stop-opacity="1" stop-color="rgb(100%, 92.953491%, 71.640015%)" offset="0.132813"/><stop stop-opacity="1" stop-color="rgb(100%, 92.715454%, 71.873474%)" offset="0.140625"/><stop stop-opacity="1" stop-color="rgb(100%, 92.475891%, 72.105408%)" offset="0.148438"/><stop stop-opacity="1" stop-color="rgb(100%, 92.236328%, 72.338867%)" offset="0.15625"/><stop stop-opacity="1" stop-color="rgb(100%, 91.998291%, 72.570801%)" offset="0.164062"/><stop stop-opacity="1" stop-color="rgb(100%, 91.758728%, 72.80426%)" offset="0.171875"/><stop stop-opacity="1" stop-color="rgb(100%, 91.519165%, 73.03772%)" offset="0.179688"/><stop stop-opacity="1" stop-color="rgb(100%, 91.281128%, 73.269653%)" offset="0.1875"/><stop stop-opacity="1" stop-color="rgb(100%, 91.041565%, 73.503113%)" offset="0.195312"/><stop stop-opacity="1" stop-color="rgb(100%, 90.802002%, 73.735046%)" offset="0.203125"/><stop stop-opacity="1" stop-color="rgb(100%, 90.563965%, 73.968506%)" offset="0.210938"/><stop stop-opacity="1" stop-color="rgb(100%, 90.324402%, 74.200439%)" offset="0.21875"/><stop stop-opacity="1" stop-color="rgb(100%, 90.084839%, 74.433899%)" offset="0.226562"/><stop stop-opacity="1" stop-color="rgb(100%, 89.846802%, 74.667358%)" offset="0.234375"/><stop stop-opacity="1" stop-color="rgb(100%, 89.607239%, 74.899292%)" offset="0.242187"/><stop stop-opacity="1" stop-color="rgb(100%, 89.367676%, 75.132751%)" offset="0.25"/><stop stop-opacity="1" stop-color="rgb(100%, 89.129639%, 75.364685%)" offset="0.257812"/><stop stop-opacity="1" stop-color="rgb(100%, 88.890076%, 75.598145%)" offset="0.265625"/><stop stop-opacity="1" stop-color="rgb(100%, 88.650513%, 75.830078%)" offset="0.273438"/><stop stop-opacity="1" stop-color="rgb(100%, 88.412476%, 76.063538%)" offset="0.28125"/><stop stop-opacity="1" stop-color="rgb(100%, 88.172913%, 76.296997%)" offset="0.289063"/><stop stop-opacity="1" stop-color="rgb(100%, 87.93335%, 76.528931%)" offset="0.296875"/><stop stop-opacity="1" stop-color="rgb(100%, 87.695312%, 76.76239%)" offset="0.304688"/><stop stop-opacity="1" stop-color="rgb(100%, 87.45575%, 76.994324%)" offset="0.3125"/><stop stop-opacity="1" stop-color="rgb(100%, 87.216187%, 77.227783%)" offset="0.320312"/><stop stop-opacity="1" stop-color="rgb(100%, 86.978149%, 77.461243%)" offset="0.328125"/><stop stop-opacity="1" stop-color="rgb(100%, 86.738586%, 77.693176%)" offset="0.335938"/><stop stop-opacity="1" stop-color="rgb(100%, 86.499023%, 77.926636%)" offset="0.34375"/><stop stop-opacity="1" stop-color="rgb(100%, 86.260986%, 78.158569%)" offset="0.351562"/><stop stop-opacity="1" stop-color="rgb(100%, 86.021423%, 78.392029%)" offset="0.359375"/><stop stop-opacity="1" stop-color="rgb(100%, 85.78186%, 78.623962%)" offset="0.367188"/><stop stop-opacity="1" stop-color="rgb(100%, 85.543823%, 78.857422%)" offset="0.375"/><stop stop-opacity="1" stop-color="rgb(100%, 85.30426%, 79.090881%)" offset="0.382812"/><stop stop-opacity="1" stop-color="rgb(100%, 85.064697%, 79.322815%)" offset="0.390625"/><stop stop-opacity="1" stop-color="rgb(100%, 84.82666%, 79.556274%)" offset="0.398438"/><stop stop-opacity="1" stop-color="rgb(100%, 84.587097%, 79.788208%)" offset="0.40625"/><stop stop-opacity="1" stop-color="rgb(100%, 84.347534%, 80.021667%)" offset="0.414062"/><stop stop-opacity="1" stop-color="rgb(100%, 84.109497%, 80.253601%)" offset="0.421875"/><stop stop-opacity="1" stop-color="rgb(100%, 83.869934%, 80.487061%)" offset="0.429688"/><stop stop-opacity="1" stop-color="rgb(100%, 83.630371%, 80.72052%)" offset="0.4375"/><stop stop-opacity="1" stop-color="rgb(100%, 83.392334%, 80.952454%)" offset="0.445312"/><stop stop-opacity="1" stop-color="rgb(100%, 83.152771%, 81.185913%)" offset="0.453125"/><stop stop-opacity="1" stop-color="rgb(100%, 82.913208%, 81.417847%)" offset="0.460937"/><stop stop-opacity="1" stop-color="rgb(100%, 82.675171%, 81.651306%)" offset="0.46875"/><stop stop-opacity="1" stop-color="rgb(100%, 82.435608%, 81.88324%)" offset="0.476562"/><stop stop-opacity="1" stop-color="rgb(100%, 82.196045%, 82.116699%)" offset="0.484375"/><stop stop-opacity="1" stop-color="rgb(100%, 81.958008%, 82.350159%)" offset="0.492188"/><stop stop-opacity="1" stop-color="rgb(100%, 81.718445%, 82.582092%)" offset="0.5"/><stop stop-opacity="1" stop-color="rgb(100%, 81.478882%, 82.815552%)" offset="0.507812"/><stop stop-opacity="1" stop-color="rgb(100%, 81.240845%, 83.047485%)" offset="0.515625"/><stop stop-opacity="1" stop-color="rgb(100%, 81.001282%, 83.280945%)" offset="0.523438"/><stop stop-opacity="1" stop-color="rgb(100%, 80.761719%, 83.512878%)" offset="0.53125"/><stop stop-opacity="1" stop-color="rgb(100%, 80.523682%, 83.746338%)" offset="0.539062"/><stop stop-opacity="1" stop-color="rgb(100%, 80.284119%, 83.979797%)" offset="0.546875"/><stop stop-opacity="1" stop-color="rgb(100%, 80.044556%, 84.211731%)" offset="0.554688"/><stop stop-opacity="1" stop-color="rgb(100%, 79.806519%, 84.44519%)" offset="0.5625"/><stop stop-opacity="1" stop-color="rgb(100%, 79.566956%, 84.677124%)" offset="0.570313"/><stop stop-opacity="1" stop-color="rgb(100%, 79.327393%, 84.910583%)" offset="0.578125"/><stop stop-opacity="1" stop-color="rgb(100%, 79.08783%, 85.144043%)" offset="0.585938"/><stop stop-opacity="1" stop-color="rgb(100%, 78.849792%, 85.375977%)" offset="0.59375"/><stop stop-opacity="1" stop-color="rgb(100%, 78.610229%, 85.609436%)" offset="0.601562"/><stop stop-opacity="1" stop-color="rgb(100%, 78.370667%, 85.84137%)" offset="0.609375"/><stop stop-opacity="1" stop-color="rgb(100%, 78.132629%, 86.074829%)" offset="0.617188"/><stop stop-opacity="1" stop-color="rgb(100%, 77.893066%, 86.306763%)" offset="0.625"/><stop stop-opacity="1" stop-color="rgb(100%, 77.653503%, 86.540222%)" offset="0.632812"/><stop stop-opacity="1" stop-color="rgb(100%, 77.415466%, 86.773682%)" offset="0.640625"/><stop stop-opacity="1" stop-color="rgb(100%, 77.175903%, 87.005615%)" offset="0.648437"/><stop stop-opacity="1" stop-color="rgb(100%, 76.93634%, 87.239075%)" offset="0.65625"/><stop stop-opacity="1" stop-color="rgb(100%, 76.698303%, 87.471008%)" offset="0.664063"/><stop stop-opacity="1" stop-color="rgb(100%, 76.45874%, 87.704468%)" offset="0.671875"/><stop stop-opacity="1" stop-color="rgb(100%, 76.219177%, 87.936401%)" offset="0.679688"/><stop stop-opacity="1" stop-color="rgb(100%, 75.98114%, 88.169861%)" offset="0.6875"/><stop stop-opacity="1" stop-color="rgb(100%, 75.741577%, 88.40332%)" offset="0.695312"/><stop stop-opacity="1" stop-color="rgb(100%, 75.502014%, 88.635254%)" offset="0.703125"/><stop stop-opacity="1" stop-color="rgb(100%, 75.263977%, 88.868713%)" offset="0.710938"/><stop stop-opacity="1" stop-color="rgb(100%, 75.024414%, 89.100647%)" offset="0.71875"/><stop stop-opacity="1" stop-color="rgb(100%, 74.784851%, 89.334106%)" offset="0.726562"/><stop stop-opacity="1" stop-color="rgb(100%, 74.546814%, 89.56604%)" offset="0.734375"/><stop stop-opacity="1" stop-color="rgb(100%, 74.307251%, 89.7995%)" offset="0.742187"/><stop stop-opacity="1" stop-color="rgb(100%, 74.067688%, 90.032959%)" offset="0.75"/><stop stop-opacity="1" stop-color="rgb(100%, 73.829651%, 90.264893%)" offset="0.757813"/><stop stop-opacity="1" stop-color="rgb(100%, 73.590088%, 90.498352%)" offset="0.765625"/><stop stop-opacity="1" stop-color="rgb(100%, 73.350525%, 90.730286%)" offset="0.773438"/><stop stop-opacity="1" stop-color="rgb(100%, 73.112488%, 90.963745%)" offset="0.78125"/><stop stop-opacity="1" stop-color="rgb(100%, 72.872925%, 91.197205%)" offset="0.789062"/><stop stop-opacity="1" stop-color="rgb(100%, 72.633362%, 91.429138%)" offset="0.796875"/><stop stop-opacity="1" stop-color="rgb(100%, 72.395325%, 91.662598%)" offset="0.804688"/><stop stop-opacity="1" stop-color="rgb(100%, 72.155762%, 91.894531%)" offset="0.8125"/><stop stop-opacity="1" stop-color="rgb(100%, 71.916199%, 92.127991%)" offset="0.820312"/><stop stop-opacity="1" stop-color="rgb(100%, 71.678162%, 92.359924%)" offset="0.828125"/><stop stop-opacity="1" stop-color="rgb(100%, 71.438599%, 92.593384%)" offset="0.835937"/><stop stop-opacity="1" stop-color="rgb(100%, 71.199036%, 92.826843%)" offset="0.84375"/><stop stop-opacity="1" stop-color="rgb(100%, 70.960999%, 93.058777%)" offset="0.851563"/><stop stop-opacity="1" stop-color="rgb(100%, 70.721436%, 93.292236%)" offset="0.859375"/><stop stop-opacity="1" stop-color="rgb(100%, 70.481873%, 93.52417%)" offset="0.867188"/><stop stop-opacity="1" stop-color="rgb(100%, 70.243835%, 93.757629%)" offset="0.875"/><stop stop-opacity="1" stop-color="rgb(100%, 70.004272%, 93.989563%)" offset="0.882812"/><stop stop-opacity="1" stop-color="rgb(100%, 69.764709%, 94.223022%)" offset="0.890625"/><stop stop-opacity="1" stop-color="rgb(100%, 69.526672%, 94.456482%)" offset="0.898438"/><stop stop-opacity="1" stop-color="rgb(100%, 69.287109%, 94.688416%)" offset="0.90625"/><stop stop-opacity="1" stop-color="rgb(100%, 69.047546%, 94.921875%)" offset="0.914062"/><stop stop-opacity="1" stop-color="rgb(100%, 68.809509%, 95.153809%)" offset="0.921875"/><stop stop-opacity="1" stop-color="rgb(100%, 68.569946%, 95.387268%)" offset="0.929687"/><stop stop-opacity="1" stop-color="rgb(100%, 68.330383%, 95.619202%)" offset="0.9375"/><stop stop-opacity="1" stop-color="rgb(100%, 68.092346%, 95.852661%)" offset="0.945312"/><stop stop-opacity="1" stop-color="rgb(100%, 67.852783%, 96.086121%)" offset="0.953125"/><stop stop-opacity="1" stop-color="rgb(100%, 67.61322%, 96.318054%)" offset="0.960938"/><stop stop-opacity="1" stop-color="rgb(100%, 67.375183%, 96.551514%)" offset="0.96875"/><stop stop-opacity="1" stop-color="rgb(100%, 67.13562%, 96.783447%)" offset="0.976562"/><stop stop-opacity="1" stop-color="rgb(100%, 66.896057%, 97.016907%)" offset="0.984375"/><stop stop-opacity="1" stop-color="rgb(100%, 66.65802%, 97.24884%)" offset="0.992188"/><stop stop-opacity="1" stop-color="rgb(100%, 66.418457%, 97.4823%)" offset="1"/></linearGradient></defs><g clip-path="url(#0542c4ddc2)"><path fill="#fff9f3" d="M 153.464844 156.589844 L 215.285156 156.589844 L 215.285156 218.410156 L 153.464844 218.410156 Z M 153.464844 156.589844 " fill-opacity="1" fill-rule="nonzero"/></g><g clip-path="url(#5095629872)"><path stroke-linecap="butt" transform="matrix(0.75, 0, 0, 0.75, 153.463281, 156.588227)" fill="none" stroke-linejoin="miter" d="M 0.0020839 0.00215524 L 82.423964 0.00215524 L 82.423964 82.424036 L 0.0020839 82.424036 Z M 0.0020839 0.00215524 " stroke="url(#2a0acd3c13)" stroke-width="8" stroke-miterlimit="4"/></g><g clip-path="url(#749baee643)"><path fill="#fff9f3" d="M 157.394531 160.519531 L 211.355469 160.519531 L 211.355469 214.480469 L 157.394531 214.480469 Z M 157.394531 160.519531 " fill-opacity="1" fill-rule="nonzero"/></g><g clip-path="url(#47bb655bbc)"><path stroke-linecap="butt" transform="matrix(0.75, 0, 0, 0.75, 157.394598, 160.519545)" fill="none" stroke-linejoin="miter" d="M -0.0000892192 -0.000017879 L 71.937416 -0.000017879 L 71.937416 71.937487 L -0.0000892192 71.937487 Z M -0.0000892192 -0.000017879 " stroke="url(#5c1c8fc501)" stroke-width="8" stroke-miterlimit="4"/></g><g fill="#8c52ff" fill-opacity="1"><g transform="translate(164.846917, 197.316873)"><g><path d="M 9.703125 0.375 C 7.992188 0.375 6.335938 0.140625 4.734375 -0.328125 C 3.128906 -0.796875 1.84375 -1.398438 0.875 -2.140625 L 2.578125 -5.921875 C 3.503906 -5.242188 4.609375 -4.695312 5.890625 -4.28125 C 7.171875 -3.863281 8.453125 -3.65625 9.734375 -3.65625 C 11.160156 -3.65625 12.210938 -3.867188 12.890625 -4.296875 C 13.578125 -4.722656 13.921875 -5.285156 13.921875 -5.984375 C 13.921875 -6.503906 13.71875 -6.929688 13.3125 -7.265625 C 12.914062 -7.609375 12.398438 -7.882812 11.765625 -8.09375 C 11.140625 -8.300781 10.289062 -8.53125 9.21875 -8.78125 C 7.5625 -9.164062 6.203125 -9.554688 5.140625 -9.953125 C 4.085938 -10.347656 3.179688 -10.976562 2.421875 -11.84375 C 1.671875 -12.71875 1.296875 -13.878906 1.296875 -15.328125 C 1.296875 -16.585938 1.632812 -17.726562 2.3125 -18.75 C 3 -19.769531 4.03125 -20.578125 5.40625 -21.171875 C 6.78125 -21.773438 8.460938 -22.078125 10.453125 -22.078125 C 11.835938 -22.078125 13.191406 -21.910156 14.515625 -21.578125 C 15.835938 -21.253906 16.992188 -20.78125 17.984375 -20.15625 L 16.4375 -16.34375 C 14.4375 -17.476562 12.429688 -18.046875 10.421875 -18.046875 C 9.015625 -18.046875 7.972656 -17.816406 7.296875 -17.359375 C 6.628906 -16.910156 6.296875 -16.3125 6.296875 -15.5625 C 6.296875 -14.820312 6.679688 -14.269531 7.453125 -13.90625 C 8.234375 -13.550781 9.421875 -13.195312 11.015625 -12.84375 C 12.660156 -12.445312 14.007812 -12.050781 15.0625 -11.65625 C 16.125 -11.269531 17.03125 -10.648438 17.78125 -9.796875 C 18.539062 -8.953125 18.921875 -7.804688 18.921875 -6.359375 C 18.921875 -5.117188 18.570312 -3.984375 17.875 -2.953125 C 17.1875 -1.929688 16.148438 -1.117188 14.765625 -0.515625 C 13.378906 0.078125 11.691406 0.375 9.703125 0.375 Z M 9.703125 0.375 "/></g></g></g><g fill="#ffbd59" fill-opacity="1"><g transform="translate(184.639884, 197.316873)"><g><path d="M 9.578125 0.25 C 7.953125 0.25 6.378906 0 4.859375 -0.5 C 3.335938 -1.007812 2.140625 -1.671875 1.265625 -2.484375 L 2.421875 -4.90625 C 3.242188 -4.15625 4.300781 -3.546875 5.59375 -3.078125 C 6.882812 -2.617188 8.210938 -2.390625 9.578125 -2.390625 C 11.378906 -2.390625 12.722656 -2.691406 13.609375 -3.296875 C 14.503906 -3.910156 14.953125 -4.722656 14.953125 -5.734375 C 14.953125 -6.484375 14.707031 -7.085938 14.21875 -7.546875 C 13.726562 -8.015625 13.128906 -8.375 12.421875 -8.625 C 11.710938 -8.875 10.703125 -9.148438 9.390625 -9.453125 C 7.765625 -9.847656 6.445312 -10.242188 5.4375 -10.640625 C 4.4375 -11.035156 3.578125 -11.640625 2.859375 -12.453125 C 2.148438 -13.265625 1.796875 -14.363281 1.796875 -15.75 C 1.796875 -16.914062 2.097656 -17.960938 2.703125 -18.890625 C 3.316406 -19.816406 4.242188 -20.554688 5.484375 -21.109375 C 6.722656 -21.671875 8.265625 -21.953125 10.109375 -21.953125 C 11.390625 -21.953125 12.648438 -21.785156 13.890625 -21.453125 C 15.128906 -21.128906 16.195312 -20.65625 17.09375 -20.03125 L 16.0625 -17.5625 C 15.15625 -18.132812 14.179688 -18.570312 13.140625 -18.875 C 12.109375 -19.175781 11.097656 -19.328125 10.109375 -19.328125 C 8.347656 -19.328125 7.03125 -19.003906 6.15625 -18.359375 C 5.28125 -17.722656 4.84375 -16.894531 4.84375 -15.875 C 4.84375 -15.132812 5.085938 -14.53125 5.578125 -14.0625 C 6.078125 -13.601562 6.691406 -13.242188 7.421875 -12.984375 C 8.160156 -12.722656 9.160156 -12.445312 10.421875 -12.15625 C 12.054688 -11.757812 13.367188 -11.363281 14.359375 -10.96875 C 15.347656 -10.582031 16.195312 -9.984375 16.90625 -9.171875 C 17.625 -8.367188 17.984375 -7.285156 17.984375 -5.921875 C 17.984375 -4.785156 17.671875 -3.742188 17.046875 -2.796875 C 16.429688 -1.859375 15.492188 -1.113281 14.234375 -0.5625 C 12.972656 -0.0195312 11.421875 0.25 9.578125 0.25 Z M 9.578125 0.25 "/></g></g></g><g fill="#414b3b" fill-opacity="1"><g transform="translate(48.026479, 196.523015)"><g><path d="M 7.90625 0.296875 C 6.507812 0.296875 5.15625 0.109375 3.84375 -0.265625 C 2.539062 -0.640625 1.492188 -1.132812 0.703125 -1.75 L 2.09375 -4.828125 C 2.851562 -4.273438 3.753906 -3.828125 4.796875 -3.484375 C 5.847656 -3.148438 6.894531 -2.984375 7.9375 -2.984375 C 9.101562 -2.984375 9.960938 -3.15625 10.515625 -3.5 C 11.066406 -3.84375 11.34375 -4.300781 11.34375 -4.875 C 11.34375 -5.300781 11.175781 -5.648438 10.84375 -5.921875 C 10.519531 -6.203125 10.101562 -6.425781 9.59375 -6.59375 C 9.082031 -6.757812 8.390625 -6.945312 7.515625 -7.15625 C 6.160156 -7.476562 5.050781 -7.796875 4.1875 -8.109375 C 3.332031 -8.429688 2.597656 -8.945312 1.984375 -9.65625 C 1.367188 -10.363281 1.0625 -11.304688 1.0625 -12.484375 C 1.0625 -13.515625 1.335938 -14.445312 1.890625 -15.28125 C 2.453125 -16.113281 3.289062 -16.773438 4.40625 -17.265625 C 5.53125 -17.753906 6.898438 -18 8.515625 -18 C 9.648438 -18 10.753906 -17.863281 11.828125 -17.59375 C 12.910156 -17.320312 13.851562 -16.9375 14.65625 -16.4375 L 13.40625 -13.328125 C 11.769531 -14.253906 10.132812 -14.71875 8.5 -14.71875 C 7.351562 -14.71875 6.503906 -14.53125 5.953125 -14.15625 C 5.398438 -13.78125 5.125 -13.289062 5.125 -12.6875 C 5.125 -12.082031 5.441406 -11.628906 6.078125 -11.328125 C 6.710938 -11.035156 7.675781 -10.75 8.96875 -10.46875 C 10.320312 -10.144531 11.425781 -9.820312 12.28125 -9.5 C 13.144531 -9.1875 13.882812 -8.679688 14.5 -7.984375 C 15.113281 -7.296875 15.421875 -6.363281 15.421875 -5.1875 C 15.421875 -4.175781 15.140625 -3.25 14.578125 -2.40625 C 14.015625 -1.570312 13.164062 -0.910156 12.03125 -0.421875 C 10.90625 0.0546875 9.53125 0.296875 7.90625 0.296875 Z M 7.90625 0.296875 "/></g></g></g><g fill="#414b3b" fill-opacity="1"><g transform="translate(64.157231, 196.523015)"><g><path d="M 13.75 -3.796875 L 5.53125 -3.796875 L 3.96875 0 L -0.234375 0 L 7.65625 -17.703125 L 11.703125 -17.703125 L 19.625 0 L 15.328125 0 Z M 12.46875 -6.90625 L 9.65625 -13.671875 L 6.84375 -6.90625 Z M 12.46875 -6.90625 "/></g></g></g><g fill="#414b3b" fill-opacity="1"><g transform="translate(83.524247, 196.523015)"><g><path d="M 18.328125 -17.703125 L 18.328125 0 L 14.234375 0 L 14.234375 -7.25 L 6.1875 -7.25 L 6.1875 0 L 2.09375 0 L 2.09375 -17.703125 L 6.1875 -17.703125 L 6.1875 -10.71875 L 14.234375 -10.71875 L 14.234375 -17.703125 Z M 18.328125 -17.703125 "/></g></g></g><g fill="#414b3b" fill-opacity="1"><g transform="translate(103.953164, 196.523015)"><g><path d="M 13.75 -3.796875 L 5.53125 -3.796875 L 3.96875 0 L -0.234375 0 L 7.65625 -17.703125 L 11.703125 -17.703125 L 19.625 0 L 15.328125 0 Z M 12.46875 -6.90625 L 9.65625 -13.671875 L 6.84375 -6.90625 Z M 12.46875 -6.90625 "/></g></g></g><g fill="#414b3b" fill-opacity="1"><g transform="translate(123.320179, 196.523015)"><g><path d="M 2.09375 -17.703125 L 10.140625 -17.703125 C 12.054688 -17.703125 13.75 -17.332031 15.21875 -16.59375 C 16.695312 -15.863281 17.84375 -14.832031 18.65625 -13.5 C 19.476562 -12.164062 19.890625 -10.613281 19.890625 -8.84375 C 19.890625 -7.070312 19.476562 -5.519531 18.65625 -4.1875 C 17.84375 -2.863281 16.695312 -1.832031 15.21875 -1.09375 C 13.75 -0.363281 12.054688 0 10.140625 0 L 2.09375 0 Z M 9.9375 -3.359375 C 11.707031 -3.359375 13.117188 -3.847656 14.171875 -4.828125 C 15.222656 -5.816406 15.75 -7.15625 15.75 -8.84375 C 15.75 -10.53125 15.222656 -11.863281 14.171875 -12.84375 C 13.117188 -13.832031 11.707031 -14.328125 9.9375 -14.328125 L 6.1875 -14.328125 L 6.1875 -3.359375 Z M 9.9375 -3.359375 "/></g></g></g><g fill="#838d7d" fill-opacity="1"><g transform="translate(221.187895, 196.318636)"><g><path d="M 7.8125 0.203125 C 6.476562 0.203125 5.191406 0 3.953125 -0.40625 C 2.710938 -0.820312 1.738281 -1.363281 1.03125 -2.03125 L 1.96875 -4 C 2.644531 -3.394531 3.507812 -2.898438 4.5625 -2.515625 C 5.613281 -2.140625 6.695312 -1.953125 7.8125 -1.953125 C 9.28125 -1.953125 10.375 -2.195312 11.09375 -2.6875 C 11.820312 -3.1875 12.1875 -3.851562 12.1875 -4.6875 C 12.1875 -5.289062 11.988281 -5.78125 11.59375 -6.15625 C 11.195312 -6.539062 10.707031 -6.832031 10.125 -7.03125 C 9.550781 -7.238281 8.734375 -7.46875 7.671875 -7.71875 C 6.335938 -8.039062 5.257812 -8.359375 4.4375 -8.671875 C 3.625 -8.992188 2.925781 -9.488281 2.34375 -10.15625 C 1.757812 -10.820312 1.46875 -11.71875 1.46875 -12.84375 C 1.46875 -13.789062 1.710938 -14.644531 2.203125 -15.40625 C 2.703125 -16.164062 3.457031 -16.769531 4.46875 -17.21875 C 5.488281 -17.675781 6.75 -17.90625 8.25 -17.90625 C 9.289062 -17.90625 10.316406 -17.769531 11.328125 -17.5 C 12.335938 -17.226562 13.207031 -16.84375 13.9375 -16.34375 L 13.109375 -14.3125 C 12.359375 -14.789062 11.5625 -15.148438 10.71875 -15.390625 C 9.882812 -15.640625 9.0625 -15.765625 8.25 -15.765625 C 6.8125 -15.765625 5.734375 -15.5 5.015625 -14.96875 C 4.304688 -14.445312 3.953125 -13.773438 3.953125 -12.953125 C 3.953125 -12.347656 4.148438 -11.851562 4.546875 -11.46875 C 4.953125 -11.09375 5.453125 -10.796875 6.046875 -10.578125 C 6.648438 -10.367188 7.46875 -10.148438 8.5 -9.921875 C 9.832031 -9.597656 10.898438 -9.273438 11.703125 -8.953125 C 12.515625 -8.628906 13.210938 -8.140625 13.796875 -7.484375 C 14.378906 -6.828125 14.671875 -5.941406 14.671875 -4.828125 C 14.671875 -3.898438 14.414062 -3.050781 13.90625 -2.28125 C 13.40625 -1.519531 12.640625 -0.914062 11.609375 -0.46875 C 10.578125 -0.0195312 9.3125 0.203125 7.8125 0.203125 Z M 7.8125 0.203125 "/></g></g></g><g fill="#838d7d" fill-opacity="1"><g transform="translate(236.891167, 196.318636)"><g><path d="M 10.65625 0.203125 C 8.863281 0.203125 7.25 -0.1875 5.8125 -0.96875 C 4.382812 -1.757812 3.257812 -2.84375 2.4375 -4.21875 C 1.625 -5.601562 1.21875 -7.148438 1.21875 -8.859375 C 1.21875 -10.554688 1.625 -12.097656 2.4375 -13.484375 C 3.257812 -14.867188 4.382812 -15.953125 5.8125 -16.734375 C 7.25 -17.515625 8.863281 -17.90625 10.65625 -17.90625 C 12.425781 -17.90625 14.023438 -17.515625 15.453125 -16.734375 C 16.890625 -15.953125 18.007812 -14.875 18.8125 -13.5 C 19.625 -12.125 20.03125 -10.578125 20.03125 -8.859375 C 20.03125 -7.140625 19.625 -5.59375 18.8125 -4.21875 C 18.007812 -2.84375 16.890625 -1.757812 15.453125 -0.96875 C 14.023438 -0.1875 12.425781 0.203125 10.65625 0.203125 Z M 10.65625 -2.046875 C 11.945312 -2.046875 13.109375 -2.335938 14.140625 -2.921875 C 15.179688 -3.515625 16 -4.332031 16.59375 -5.375 C 17.195312 -6.414062 17.5 -7.578125 17.5 -8.859375 C 17.5 -10.140625 17.195312 -11.296875 16.59375 -12.328125 C 16 -13.367188 15.179688 -14.179688 14.140625 -14.765625 C 13.109375 -15.359375 11.945312 -15.65625 10.65625 -15.65625 C 9.351562 -15.65625 8.175781 -15.359375 7.125 -14.765625 C 6.070312 -14.179688 5.242188 -13.367188 4.640625 -12.328125 C 4.046875 -11.296875 3.75 -10.140625 3.75 -8.859375 C 3.75 -7.578125 4.046875 -6.414062 4.640625 -5.375 C 5.242188 -4.332031 6.070312 -3.515625 7.125 -2.921875 C 8.175781 -2.335938 9.351562 -2.046875 10.65625 -2.046875 Z M 10.65625 -2.046875 "/></g></g></g><g fill="#838d7d" fill-opacity="1"><g transform="translate(258.132298, 196.318636)"><g><path d="M 2.65625 -17.703125 L 5.1875 -17.703125 L 5.1875 -2.203125 L 14.765625 -2.203125 L 14.765625 0 L 2.65625 0 Z M 2.65625 -17.703125 "/></g></g></g><g fill="#838d7d" fill-opacity="1"><g transform="translate(273.152817, 196.318636)"><g><path d="M 9.4375 -6.125 L 9.4375 0 L 6.9375 0 L 6.9375 -6.171875 L -0.09375 -17.703125 L 2.609375 -17.703125 L 8.265625 -8.375 L 13.96875 -17.703125 L 16.46875 -17.703125 Z M 9.4375 -6.125 "/></g></g></g><g fill="#838d7d" fill-opacity="1"><g transform="translate(289.513552, 196.318636)"><g><path d="M 19.078125 0 L 19.046875 -12.90625 L 12.65625 -2.15625 L 11.484375 -2.15625 L 5.078125 -12.828125 L 5.078125 0 L 2.65625 0 L 2.65625 -17.703125 L 4.734375 -17.703125 L 12.125 -5.265625 L 19.40625 -17.703125 L 21.484375 -17.703125 L 21.5 0 Z M 19.078125 0 "/></g></g></g><g fill="#838d7d" fill-opacity="1"><g transform="translate(313.662702, 196.318636)"><g><path d="M 13.9375 -4.421875 L 4.53125 -4.421875 L 2.578125 0 L -0.03125 0 L 8 -17.703125 L 10.5 -17.703125 L 18.546875 0 L 15.890625 0 Z M 13.046875 -6.453125 L 9.234375 -15.125 L 5.40625 -6.453125 Z M 13.046875 -6.453125 "/></g></g></g><g fill="#838d7d" fill-opacity="1"><g transform="translate(332.172829, 196.318636)"><g><path d="M 17.890625 -17.703125 L 17.890625 0 L 15.8125 0 L 5.1875 -13.203125 L 5.1875 0 L 2.65625 0 L 2.65625 -17.703125 L 4.734375 -17.703125 L 15.359375 -4.5 L 15.359375 -17.703125 Z M 17.890625 -17.703125 "/></g></g></g></svg>